<svg width="60" height="60" viewBox="0 0 60 60" fill="none" xmlns="http://www.w3.org/2000/svg">
<rect opacity="0.3" width="60" height="60" fill="#ABC3FF"/>
<path d="M15.375 27.1718V17.4051C15.375 17.0527 15.515 16.7146 15.7643 16.4654C16.0135 16.2161 16.3515 16.0761 16.704 16.0761H43.2845C43.637 16.0761 43.975 16.2161 44.2242 16.4654C44.4735 16.7146 44.6135 17.0527 44.6135 17.4051V27.1685C44.6135 41.1531 32.7669 45.7864 30.4029 46.5722C30.1381 46.6636 29.8504 46.6636 29.5856 46.5722C27.2216 45.7897 15.375 41.1614 15.375 27.1718Z" fill="#8DADFD"/>
<path d="M15.375 24.4549V14.6883C15.375 14.3358 15.515 13.9978 15.7643 13.7485C16.0135 13.4993 16.3515 13.3593 16.704 13.3593H43.2845C43.637 13.3593 43.975 13.4993 44.2242 13.7485C44.4735 13.9978 44.6135 14.3358 44.6135 14.6883V24.4516C44.6135 38.4363 32.7669 43.0696 30.4029 43.8554C30.1381 43.9467 29.8504 43.9467 29.5856 43.8554C27.2216 43.0729 15.375 38.4446 15.375 24.4549Z" fill="#ABC3FF"/>
</svg>
