<svg width="50" height="50" viewBox="0 0 50 50" fill="none" xmlns="http://www.w3.org/2000/svg">
<rect opacity="0.3" width="50" height="50" fill="#ABC3FF"/>
<path d="M29.52 10.299C23.1255 10.299 17.9414 15.4831 17.9414 21.8776C17.9414 28.272 23.1255 33.4562 29.52 33.4562C35.9145 33.4562 41.0986 28.272 41.0986 21.8776C41.0986 15.4831 35.9145 10.299 29.52 10.299ZM33.3795 21.1057C31.6736 21.1057 30.2919 19.724 30.2919 18.018C30.2919 16.3121 31.6736 14.9304 33.3795 14.9304C35.0854 14.9304 36.4671 16.3121 36.4671 18.018C36.4671 19.724 35.0854 21.1057 33.3795 21.1057Z" fill="#8DADFD"/>
<path d="M18.8479 26.3747L10.675 34.5477C10.3848 34.8379 10.2227 35.23 10.2227 35.6391V39.6314C10.2227 40.4836 10.9143 41.1752 11.7665 41.1752H15.7588C16.1679 41.1752 16.5615 41.0131 16.8502 40.7229L18.8464 38.7268C19.2555 38.3176 19.4855 37.7619 19.4855 37.1829C19.4855 35.9772 20.4628 35 21.6685 35C22.2474 35 22.8032 34.77 23.2123 34.3609L25.0232 32.55C22.2443 31.3782 20.0197 29.152 18.8479 26.3747Z" fill="#8DADFD"/>
<path d="M28.1958 8.82483C21.8013 8.82483 16.6172 14.0089 16.6172 20.4034C16.6172 26.7979 21.8013 31.982 28.1958 31.982C34.5902 31.982 39.7743 26.7979 39.7743 20.4034C39.7743 14.0089 34.5902 8.82483 28.1958 8.82483ZM32.0553 19.6315C30.3494 19.6315 28.9677 18.2498 28.9677 16.5439C28.9677 14.838 30.3494 13.4563 32.0553 13.4563C33.7612 13.4563 35.1429 14.838 35.1429 16.5439C35.1429 18.2498 33.7612 19.6315 32.0553 19.6315Z" fill="#ABC3FF"/>
<path d="M17.5237 24.9005L9.35077 33.0735C9.06054 33.3637 8.89844 33.7558 8.89844 34.1649V38.1572C8.89844 39.0094 9.59006 39.701 10.4422 39.701H14.4345C14.8437 39.701 15.2373 39.5389 15.526 39.2487L17.5222 37.2526C17.9313 36.8434 18.1613 36.2877 18.1613 35.7087C18.1613 34.503 19.1385 33.5258 20.3442 33.5258C20.9232 33.5258 21.479 33.2958 21.8881 32.8867L23.699 31.0758C20.9201 29.904 18.6955 27.6778 17.5237 24.9005Z" fill="#ABC3FF"/>
</svg>
