<svg width="17" height="17" viewBox="0 0 17 17" fill="none" xmlns="http://www.w3.org/2000/svg">
<path d="M8.49706 15.4683C12.4779 15.4683 15.7051 12.2412 15.7051 8.26031C15.7051 4.27944 12.4779 1.05231 8.49706 1.05231C4.51619 1.05231 1.28906 4.27944 1.28906 8.26031C1.28906 12.2412 4.51619 15.4683 8.49706 15.4683Z" fill="white"/>
<path d="M8.48907 1.05231C7.06504 1.05231 5.67299 1.47458 4.48896 2.26573C3.30493 3.05687 2.38208 4.18136 1.83713 5.49699C1.29218 6.81261 1.1496 8.26029 1.42741 9.65696C1.70523 11.0536 2.39096 12.3365 3.3979 13.3435C4.40484 14.3504 5.68775 15.0361 7.08442 15.314C8.48108 15.5918 9.92876 15.4492 11.2444 14.9042C12.56 14.3593 13.6845 13.4364 14.4756 12.2524C15.2668 11.0684 15.6891 9.67633 15.6891 8.25231C15.6891 6.34275 14.9305 4.5114 13.5802 3.16114C12.23 1.81088 10.3986 1.05231 8.48907 1.05231ZM11.8731 6.22031L8.32107 11.1483C8.21526 11.2911 8.06086 11.3903 7.88696 11.4272C7.71307 11.464 7.5317 11.436 7.37707 11.3483L5.33707 10.1563C5.17157 10.0566 5.05247 9.89521 5.00596 9.70767C4.95945 9.52013 4.98934 9.3218 5.08907 9.15631C5.18879 8.99081 5.35017 8.87171 5.5377 8.8252C5.72524 8.77869 5.92357 8.80859 6.08907 8.90831L7.53707 9.77231L10.7371 5.38031C10.8558 5.26133 11.0125 5.18766 11.1799 5.17206C11.3473 5.15647 11.5148 5.19994 11.6535 5.29494C11.7922 5.38994 11.8933 5.53047 11.9392 5.69218C11.9852 5.85389 11.9731 6.02658 11.9051 6.18031L11.8731 6.22031Z" fill="#0F2247"/>
</svg>
