<svg width="16" height="16" viewBox="0 0 16 16" fill="none" xmlns="http://www.w3.org/2000/svg">
<g clip-path="url(#clip0_5416_13059)">
<path d="M1.33398 7.75968C1.33398 9.52779 2.03636 11.2235 3.28661 12.4737C4.53685 13.724 6.23254 14.4264 8.00065 14.4264C9.76876 14.4264 11.4645 13.724 12.7147 12.4737C13.9649 11.2235 14.6673 9.52779 14.6673 7.75968C14.6673 5.99157 13.9649 4.29588 12.7147 3.04564C11.4645 1.7954 9.76876 1.09302 8.00065 1.09302C6.23254 1.09302 4.53685 1.7954 3.28661 3.04564C2.03636 4.29588 1.33398 5.99157 1.33398 7.75968V7.75968Z" stroke="#0F2247" stroke-width="1.4" stroke-linecap="round" stroke-linejoin="round"/>
<path d="M7.8418 10.5114V10.6075" stroke="#0F2247" stroke-width="1.3" stroke-linecap="round"/>
<path d="M6.40625 6.50618C6.40625 5.53295 7.27875 4.76294 8.28439 4.93639C9.04914 5.06779 9.61767 5.78085 9.59401 6.55611C9.57387 7.221 9.15339 7.68703 8.61727 7.92267C8.11971 8.14255 7.84201 8.31249 7.84201 8.85561" stroke="#0F2247" stroke-width="1.3" stroke-linecap="round"/>
</g>
<defs>
<clipPath id="clip0_5416_13059">
<rect width="16" height="16" fill="white"/>
</clipPath>
</defs>
</svg>
