<svg width="21" height="21" viewBox="0 0 21 21" fill="none" xmlns="http://www.w3.org/2000/svg">
<path d="M5.24577 8.96263C5.05413 9.52242 4.95743 10.1103 4.95849 10.7021C4.95849 11.3622 5.07698 11.9951 5.29675 12.5795C6.33371 15.3472 9.41787 16.7491 12.1856 15.7118C12.4711 15.6046 12.7464 15.4738 13.0091 15.3198H13.0098C14.0706 14.6984 14.8843 13.7314 15.3179 12.5809H10.5051V9.02065H19.15C19.3732 10.1983 19.3599 11.4086 19.1106 12.5813C18.6781 14.6081 17.5585 16.4228 15.942 17.7203C14.346 19.0063 12.3568 19.705 10.3075 19.7021C5.33789 19.705 1.3075 15.6784 1.30469 10.7092C1.30399 9.26608 1.64999 7.84409 2.31352 6.56239C3.86069 3.57599 6.94379 1.70039 10.3075 1.70215C12.4908 1.70215 14.4937 2.47996 16.0521 3.77361L13.1367 6.16083C10.6264 4.59818 7.32531 5.3672 5.76267 7.87644C5.54993 8.21822 5.37657 8.58322 5.24577 8.96263Z" fill="#0F2247"/>
</svg>
