<svg width="156" height="26" viewBox="0 0 156 26" fill="none" xmlns="http://www.w3.org/2000/svg">
<g filter="url(#filter0_d_5422_15970)">
<rect x="6.13013" y="3.51178" width="14.5272" height="18.6779" rx="1.68365" fill="#6F98FE"/>
</g>
<path d="M8.76636 9.86666V3.51178H13.1674V9.87702C13.1674 10.2952 12.6983 10.5417 12.354 10.3045L10.9468 9.33516L9.58348 10.2916C9.23952 10.5329 8.76636 10.2868 8.76636 9.86666Z" fill="white"/>
<path d="M28.6542 18.3507V7.38788H30.9721V12.2216H31.1166L35.0617 7.38788H37.8399L33.7717 12.2965L37.8881 18.3507H35.1152L32.1122 13.8435L30.9721 15.2353V18.3507H28.6542ZM41.2845 13.5973V18.3507H39.0042V10.1286H41.1774V11.5792H41.2738C41.4558 11.101 41.7609 10.7228 42.1892 10.4444C42.6174 10.1625 43.1366 10.0215 43.7469 10.0215C44.3178 10.0215 44.8157 10.1464 45.2403 10.3962C45.665 10.646 45.9951 11.0029 46.2306 11.4668C46.4662 11.9272 46.5839 12.4767 46.5839 13.1155V18.3507H44.3036V13.5224C44.3071 13.0192 44.1787 12.6266 43.9182 12.3447C43.6576 12.0592 43.299 11.9165 42.8422 11.9165C42.5353 11.9165 42.2641 11.9825 42.0286 12.1145C41.7966 12.2466 41.6146 12.4393 41.4826 12.6926C41.3541 12.9425 41.2881 13.244 41.2845 13.5973ZM52.0961 18.5113C51.2646 18.5113 50.5455 18.3346 49.9389 17.9814C49.3358 17.6245 48.8701 17.1285 48.5418 16.4932C48.2134 15.8545 48.0493 15.114 48.0493 14.2718C48.0493 13.4224 48.2134 12.6802 48.5418 12.0449C48.8701 11.4062 49.3358 10.9101 49.9389 10.5568C50.5455 10.2 51.2646 10.0215 52.0961 10.0215C52.9276 10.0215 53.6449 10.2 54.248 10.5568C54.8547 10.9101 55.3221 11.4062 55.6505 12.0449C55.9788 12.6802 56.1429 13.4224 56.1429 14.2718C56.1429 15.114 55.9788 15.8545 55.6505 16.4932C55.3221 17.1285 54.8547 17.6245 54.248 17.9814C53.6449 18.3346 52.9276 18.5113 52.0961 18.5113ZM52.1068 16.7448C52.4851 16.7448 52.8009 16.6378 53.0543 16.4236C53.3077 16.206 53.4986 15.9098 53.6271 15.5351C53.7591 15.1604 53.8251 14.7339 53.8251 14.2557C53.8251 13.7775 53.7591 13.3511 53.6271 12.9764C53.4986 12.6016 53.3077 12.3055 53.0543 12.0878C52.8009 11.8701 52.4851 11.7612 52.1068 11.7612C51.725 11.7612 51.4038 11.8701 51.1433 12.0878C50.8863 12.3055 50.6919 12.6016 50.5598 12.9764C50.4313 13.3511 50.3671 13.7775 50.3671 14.2557C50.3671 14.7339 50.4313 15.1604 50.5598 15.5351C50.6919 15.9098 50.8863 16.206 51.1433 16.4236C51.4038 16.6378 51.725 16.7448 52.1068 16.7448ZM59.0416 18.3507L56.804 10.1286H59.1111L60.3851 15.6528H60.4601L61.7876 10.1286H64.0519L65.4008 15.6207H65.4704L66.723 10.1286H69.0248L66.7926 18.3507H64.3784L62.9653 13.1798H62.8636L61.4504 18.3507H59.0416ZM72.5216 7.38788V18.3507H70.2412V7.38788H72.5216ZM78.0953 18.5113C77.2496 18.5113 76.5216 18.34 75.9113 17.9974C75.3047 17.6513 74.8372 17.1624 74.5089 16.5307C74.1806 15.8955 74.0164 15.1443 74.0164 14.2771C74.0164 13.4314 74.1806 12.6891 74.5089 12.0503C74.8372 11.4115 75.2993 10.9137 75.8953 10.5568C76.4948 10.2 77.1978 10.0215 78.0043 10.0215C78.5468 10.0215 79.0517 10.109 79.5192 10.2838C79.9903 10.4551 80.4007 10.7138 80.7504 11.06C81.1037 11.4062 81.3785 11.8415 81.5748 12.3661C81.771 12.8871 81.8692 13.4974 81.8692 14.1968V14.8231H74.9264V13.4099H79.7226C79.7226 13.0816 79.6513 12.7908 79.5085 12.5374C79.3658 12.284 79.1677 12.086 78.9143 11.9432C78.6645 11.7969 78.3737 11.7238 78.0418 11.7238C77.6957 11.7238 77.3888 11.8041 77.1211 11.9646C76.857 12.1217 76.6501 12.334 76.5002 12.6016C76.3503 12.8657 76.2736 13.1601 76.27 13.4849V14.8285C76.27 15.2353 76.3449 15.5868 76.4948 15.883C76.6483 16.1792 76.8642 16.4076 77.1425 16.5682C77.4209 16.7288 77.751 16.8091 78.1328 16.8091C78.3862 16.8091 78.6182 16.7734 78.8287 16.702C79.0393 16.6306 79.2195 16.5236 79.3693 16.3808C79.5192 16.2381 79.6334 16.0632 79.7119 15.8562L81.821 15.9954C81.7139 16.5022 81.4945 16.9447 81.1626 17.3229C80.8343 17.6976 80.4096 17.9903 79.8886 18.2008C79.3711 18.4078 78.7734 18.5113 78.0953 18.5113ZM86.3871 18.4845C85.7625 18.4845 85.1969 18.3239 84.6902 18.0028C84.187 17.678 83.7873 17.2016 83.4911 16.5735C83.1985 15.9419 83.0522 15.1675 83.0522 14.2504C83.0522 13.3082 83.2038 12.5249 83.5072 11.9004C83.8105 11.2723 84.2138 10.8031 84.7169 10.4926C85.2237 10.1786 85.7786 10.0215 86.3817 10.0215C86.8421 10.0215 87.2257 10.1 87.5326 10.2571C87.8431 10.4105 88.0929 10.6032 88.282 10.8352C88.4747 11.0636 88.621 11.2884 88.7209 11.5096H88.7905V7.38788H91.0655V18.3507H88.8173V17.0339H88.7209C88.6139 17.2623 88.4622 17.4889 88.2659 17.7137C88.0732 17.935 87.8216 18.1187 87.5112 18.2651C87.2043 18.4114 86.8296 18.4845 86.3871 18.4845ZM87.1097 16.6699C87.4773 16.6699 87.7877 16.57 88.0411 16.3701C88.2981 16.1667 88.4943 15.883 88.6299 15.519C88.7691 15.155 88.8387 14.7286 88.8387 14.2396C88.8387 13.7507 88.7709 13.3261 88.6353 12.9656C88.4997 12.6052 88.3034 12.3269 88.0465 12.1306C87.7895 11.9343 87.4773 11.8362 87.1097 11.8362C86.735 11.8362 86.4192 11.9379 86.1622 12.1413C85.9053 12.3447 85.7108 12.6266 85.5788 12.9871C85.4467 13.3475 85.3807 13.765 85.3807 14.2396C85.3807 14.7178 85.4467 15.1407 85.5788 15.5083C85.7144 15.8723 85.9089 16.1578 86.1622 16.3648C86.4192 16.5682 86.735 16.6699 87.1097 16.6699ZM96.6446 21.6053C95.9059 21.6053 95.2725 21.5036 94.7443 21.3002C94.2197 21.1003 93.8022 20.8273 93.4917 20.4812C93.1813 20.135 92.9797 19.746 92.8869 19.3142L94.9959 19.0305C95.0602 19.1947 95.1619 19.3481 95.301 19.4909C95.4402 19.6336 95.624 19.7478 95.8524 19.8335C96.0844 19.9227 96.3663 19.9673 96.6982 19.9673C97.1942 19.9673 97.6028 19.846 97.924 19.6033C98.2487 19.3642 98.4111 18.9627 98.4111 18.3989V16.8947H98.3147C98.2148 17.1231 98.0649 17.339 97.8651 17.5424C97.6653 17.7458 97.4083 17.9118 97.0943 18.0402C96.7802 18.1687 96.4055 18.2329 95.9702 18.2329C95.3528 18.2329 94.7907 18.0902 94.284 17.8047C93.7808 17.5156 93.3793 17.0749 93.0796 16.4825C92.7834 15.8866 92.6353 15.1336 92.6353 14.2236C92.6353 13.2922 92.7869 12.5142 93.0903 11.8897C93.3936 11.2652 93.7969 10.7977 94.3 10.4872C94.8068 10.1768 95.3617 10.0215 95.9648 10.0215C96.4252 10.0215 96.8106 10.1 97.121 10.2571C97.4315 10.4105 97.6813 10.6032 97.8705 10.8352C98.0632 11.0636 98.2113 11.2884 98.3147 11.5096H98.4004V10.1286H100.665V18.431C100.665 19.1305 100.493 19.7157 100.151 20.1868C99.8082 20.6578 99.3336 21.0111 98.7269 21.2466C98.1238 21.4857 97.4297 21.6053 96.6446 21.6053ZM96.6928 16.52C97.0604 16.52 97.3708 16.429 97.6242 16.247C97.8812 16.0614 98.0774 15.7974 98.213 15.4548C98.3522 15.1086 98.4218 14.6946 98.4218 14.2129C98.4218 13.7311 98.354 13.3136 98.2184 12.9603C98.0828 12.6034 97.8865 12.3269 97.6296 12.1306C97.3726 11.9343 97.0604 11.8362 96.6928 11.8362C96.3181 11.8362 96.0023 11.9379 95.7453 12.1413C95.4884 12.3411 95.2939 12.6195 95.1619 12.9764C95.0298 13.3332 94.9638 13.7454 94.9638 14.2129C94.9638 14.6875 95.0298 15.0979 95.1619 15.4441C95.2975 15.7866 95.492 16.0525 95.7453 16.2416C96.0023 16.4272 96.3181 16.52 96.6928 16.52ZM106.226 18.5113C105.381 18.5113 104.653 18.34 104.042 17.9974C103.436 17.6513 102.968 17.1624 102.64 16.5307C102.312 15.8955 102.147 15.1443 102.147 14.2771C102.147 13.4314 102.312 12.6891 102.64 12.0503C102.968 11.4115 103.43 10.9137 104.026 10.5568C104.626 10.2 105.329 10.0215 106.135 10.0215C106.678 10.0215 107.183 10.109 107.65 10.2838C108.121 10.4551 108.532 10.7138 108.881 11.06C109.235 11.4062 109.51 11.8415 109.706 12.3661C109.902 12.8871 110 13.4974 110 14.1968V14.8231H103.057V13.4099H107.854C107.854 13.0816 107.782 12.7908 107.64 12.5374C107.497 12.284 107.299 12.086 107.045 11.9432C106.796 11.7969 106.505 11.7238 106.173 11.7238C105.827 11.7238 105.52 11.8041 105.252 11.9646C104.988 12.1217 104.781 12.334 104.631 12.6016C104.481 12.8657 104.405 13.1601 104.401 13.4849V14.8285C104.401 15.2353 104.476 15.5868 104.626 15.883C104.779 16.1792 104.995 16.4076 105.274 16.5682C105.552 16.7288 105.882 16.8091 106.264 16.8091C106.517 16.8091 106.749 16.7734 106.96 16.702C107.17 16.6306 107.351 16.5236 107.5 16.3808C107.65 16.2381 107.764 16.0632 107.843 15.8562L109.952 15.9954C109.845 16.5022 109.626 16.9447 109.294 17.3229C108.965 17.6976 108.541 17.9903 108.02 18.2008C107.502 18.4078 106.904 18.5113 106.226 18.5113ZM111.531 18.3507V7.38788H113.849V11.9111H118.554V7.38788H120.867V18.3507H118.554V13.8221H113.849V18.3507H111.531ZM128.008 14.8499V10.1286H130.288V18.3507H128.099V16.8572H128.013C127.827 17.339 127.519 17.7262 127.087 18.0188C126.659 18.3115 126.136 18.4578 125.518 18.4578C124.969 18.4578 124.485 18.3329 124.068 18.0831C123.65 17.8333 123.324 17.4782 123.088 17.0178C122.856 16.5575 122.738 16.0061 122.735 15.3638V10.1286H125.015V14.9569C125.019 15.4423 125.149 15.8259 125.406 16.1078C125.663 16.3897 126.007 16.5307 126.439 16.5307C126.714 16.5307 126.971 16.4683 127.21 16.3434C127.449 16.2149 127.642 16.0257 127.788 15.7759C127.938 15.5261 128.011 15.2175 128.008 14.8499ZM132.155 18.3507V7.38788H134.435V11.5096H134.505C134.605 11.2884 134.749 11.0636 134.938 10.8352C135.131 10.6032 135.381 10.4105 135.688 10.2571C135.998 10.1 136.384 10.0215 136.844 10.0215C137.443 10.0215 137.997 10.1786 138.503 10.4926C139.01 10.8031 139.415 11.2723 139.718 11.9004C140.022 12.5249 140.173 13.3082 140.173 14.2504C140.173 15.1675 140.025 15.9419 139.729 16.5735C139.436 17.2016 139.037 17.678 138.53 18.0028C138.027 18.3239 137.463 18.4845 136.839 18.4845C136.396 18.4845 136.02 18.4114 135.709 18.2651C135.402 18.1187 135.151 17.935 134.954 17.7137C134.758 17.4889 134.608 17.2623 134.505 17.0339H134.403V18.3507H132.155ZM134.387 14.2396C134.387 14.7286 134.455 15.155 134.59 15.519C134.726 15.883 134.922 16.1667 135.179 16.3701C135.436 16.57 135.748 16.6699 136.116 16.6699C136.487 16.6699 136.801 16.5682 137.058 16.3648C137.315 16.1578 137.509 15.8723 137.641 15.5083C137.777 15.1407 137.845 14.7178 137.845 14.2396C137.845 13.765 137.779 13.3475 137.647 12.9871C137.515 12.6266 137.32 12.3447 137.063 12.1413C136.806 11.9379 136.491 11.8362 136.116 11.8362C135.745 11.8362 135.431 11.9343 135.174 12.1306C134.92 12.3269 134.726 12.6052 134.59 12.9656C134.455 13.3261 134.387 13.7507 134.387 14.2396ZM147.4 7.38788L149.611 11.1242H149.696L151.918 7.38788H154.535L151.19 12.8693L154.61 18.3507H151.945L149.696 14.609H149.611L147.362 18.3507H144.707L148.139 12.8693L144.772 7.38788H147.4Z" fill="#0F2247"/>
<defs>
<filter id="filter0_d_5422_15970" x="4.13013" y="3.51178" width="16.5273" height="20.6779" filterUnits="userSpaceOnUse" color-interpolation-filters="sRGB">
<feFlood flood-opacity="0" result="BackgroundImageFix"/>
<feColorMatrix in="SourceAlpha" type="matrix" values="0 0 0 0 0 0 0 0 0 0 0 0 0 0 0 0 0 0 127 0" result="hardAlpha"/>
<feOffset dx="-2" dy="2"/>
<feComposite in2="hardAlpha" operator="out"/>
<feColorMatrix type="matrix" values="0 0 0 0 0.761111 0 0 0 0 0.829604 0 0 0 0 1 0 0 0 1 0"/>
<feBlend mode="normal" in2="BackgroundImageFix" result="effect1_dropShadow_5422_15970"/>
<feBlend mode="normal" in="SourceGraphic" in2="effect1_dropShadow_5422_15970" result="shape"/>
</filter>
</defs>
</svg>
