<svg width="21" height="21" viewBox="0 0 21 21" fill="none" xmlns="http://www.w3.org/2000/svg">
<path d="M17.8408 9.50735C17.8176 9.40661 17.7697 9.3132 17.7016 9.23548C17.6334 9.15776 17.547 9.09817 17.4502 9.06204L12.9502 7.37454L14.0908 1.64798C14.117 1.51533 14.1001 1.37777 14.0424 1.25545C13.9848 1.13313 13.8895 1.0325 13.7705 0.968292C13.6503 0.904364 13.5123 0.881961 13.3781 0.904568C13.2439 0.927176 13.1209 0.993526 13.0283 1.09329L4.27828 10.4683C4.20658 10.5427 4.1547 10.6339 4.1274 10.7335C4.10011 10.8332 4.09826 10.9381 4.12203 11.0386C4.14649 11.1388 4.19477 11.2316 4.26278 11.3091C4.33079 11.3866 4.41651 11.4466 4.51265 11.4839L9.01265 13.1714L7.87203 18.898C7.8458 19.0306 7.86274 19.1682 7.92039 19.2905C7.97803 19.4128 8.07334 19.5135 8.19234 19.5777C8.28204 19.6229 8.38094 19.647 8.4814 19.648C8.5663 19.6483 8.65037 19.6312 8.72833 19.5976C8.8063 19.564 8.87649 19.5146 8.93453 19.4527L17.6845 10.0777C17.7562 10.0033 17.8081 9.91208 17.8354 9.81244C17.8627 9.7128 17.8645 9.6079 17.8408 9.50735Z" fill="url(#paint0_linear_5416_18965)"/>
<defs>
<linearGradient id="paint0_linear_5416_18965" x1="10.9814" y1="0.895996" x2="10.9814" y2="19.648" gradientUnits="userSpaceOnUse">
<stop stop-color="#FFDD65"/>
<stop offset="1" stop-color="#FFB21D"/>
</linearGradient>
</defs>
</svg>
