<svg width="60" height="60" viewBox="0 0 60 60" fill="none" xmlns="http://www.w3.org/2000/svg">
<rect opacity="0.3" width="60" height="60" fill="#ABC3FF"/>
<path d="M41.8143 50.6871H18.1879C14.9254 50.6871 12.2812 48.0429 12.2812 44.7804V29.0295C12.2812 25.7671 14.9254 23.1229 18.1879 23.1229H41.8143C45.0767 23.1229 47.7209 25.7671 47.7209 29.0295V44.7804C47.7209 48.0429 45.0767 50.6871 41.8143 50.6871Z" fill="#8DADFD"/>
<path d="M41.8143 48.6903H18.1879C14.9254 48.6903 12.2812 46.0461 12.2812 42.7837V27.0327C12.2812 23.7703 14.9254 21.1261 18.1879 21.1261H41.8143C45.0767 21.1261 47.7209 23.7703 47.7209 27.0327V42.7837C47.7209 46.0461 45.0767 48.6903 41.8143 48.6903Z" fill="#ABC3FF"/>
<path d="M22.1252 21.1262C22.1252 16.7769 25.6515 13.2507 30.0007 13.2507C34.35 13.2507 37.8762 16.7769 37.8762 21.1262H41.8139C41.8139 14.6013 36.5256 9.31293 30.0007 9.31293C23.4759 9.31293 18.1875 14.6013 18.1875 21.1262H22.1252Z" fill="#ABC3FF"/>
<path d="M30.0002 30.9705C27.8246 30.9705 26.0625 32.7326 26.0625 34.9082C26.0625 37.0838 27.8246 38.846 30.0002 38.846C32.1758 38.846 33.938 37.0838 33.938 34.9082C33.938 32.7326 32.1758 30.9705 30.0002 30.9705Z" fill="white"/>
</svg>
