<svg width="60" height="60" viewBox="0 0 60 60" fill="none" xmlns="http://www.w3.org/2000/svg">
<rect opacity="0.3" width="60" height="60" fill="#ABC3FF"/>
<path d="M16.9582 34.0315H23.3028C24.6326 34.0315 25.3001 35.6403 24.3588 36.5817L17.0814 43.8608C16.1401 44.8004 14.5312 44.1346 14.5312 42.8047V36.4601C14.5312 35.1183 15.6181 34.0315 16.9582 34.0315Z" fill="#8DADFD"/>
<path d="M42.7512 32.5394C41.3994 32.5143 40.1016 33.2623 39.5855 34.5109C38.0208 38.3026 34.2623 40.941 29.9124 40.8604C26.134 40.7903 22.8744 38.6859 21.1528 35.6104C20.5563 34.5466 14.308 37.7842 15.9074 40.1556C18.9213 44.6211 23.9895 47.5978 29.7855 47.7053C36.9914 47.8389 43.2379 43.4989 45.8772 37.2398C46.8082 35.0317 45.147 32.5838 42.7512 32.5394Z" fill="#8DADFD"/>
<path d="M42.7847 15.8585L41.8126 16.8307C38.7336 13.8509 34.5557 11.9956 29.9312 11.9956C22.724 11.9956 16.5591 16.4507 14.0363 22.7577C13.1463 24.9827 14.8527 27.3993 17.2488 27.3993C18.6009 27.3993 19.8846 26.6274 20.3775 25.3695C21.8717 21.5493 25.5805 18.8417 29.9312 18.8417C32.6662 18.8417 35.1394 19.9234 36.9775 21.6674L35.5056 23.1376C34.5643 24.079 35.2318 25.6878 36.5616 25.6878H42.9062C44.2481 25.6878 45.3349 24.601 45.3349 23.2609V16.9145C45.3349 15.5847 43.7261 14.9189 42.7847 15.8585Z" fill="#ABC3FF"/>
<path d="M16.9582 32.5339H23.3028C24.6326 32.5339 25.3001 34.1427 24.3588 35.0841L17.0814 42.3632C16.1401 43.3028 14.5312 42.637 14.5312 41.3072V34.9626C14.5312 33.6207 15.6181 32.5339 16.9582 32.5339Z" fill="#ABC3FF"/>
<path d="M42.6152 30.8223C41.2631 30.8223 39.9795 31.5942 39.4866 32.8522C37.9924 36.6723 34.2836 39.3799 29.9329 39.3799C26.1538 39.3799 22.8557 37.3364 21.0775 34.2933C20.4613 33.2407 14.2742 36.5936 15.9172 38.9349C19.0134 43.3438 24.136 46.226 29.9329 46.226C37.1401 46.226 43.305 41.7709 45.8278 35.464C46.7178 33.239 45.0114 30.8223 42.6152 30.8223Z" fill="#ABC3FF"/>
</svg>
