<svg width="21" height="21" viewBox="0 0 21 21" fill="none" xmlns="http://www.w3.org/2000/svg">
<path fill-rule="evenodd" clip-rule="evenodd" d="M10.7651 2.21973C10.326 2.21973 9.89476 2.33573 9.51493 2.55599C9.13611 2.77567 8.82188 3.09126 8.60386 3.47098L8.6021 3.47405L1.72948 15.3449C1.51043 15.7243 1.39492 16.1546 1.39453 16.5927C1.39415 17.0308 1.50889 17.4613 1.72727 17.8411C1.94564 18.2209 2.25999 18.5366 2.63881 18.7567C3.01764 18.9767 3.44763 19.0934 3.88573 19.0949L3.89013 19.0949H17.6401L17.6445 19.0949C18.0826 19.0934 18.5126 18.9767 18.8914 18.7567C19.2703 18.5366 19.5846 18.2209 19.803 17.8411C20.0214 17.4613 20.1361 17.0308 20.1357 16.5927C20.1353 16.1546 20.0198 15.7243 19.8008 15.3449L12.9282 3.47405L12.9264 3.47097C12.7084 3.09126 12.3941 2.77567 12.0153 2.55599C11.6355 2.33573 11.2042 2.21973 10.7651 2.21973Z" fill="url(#paint0_linear_5416_19128)"/>
<path d="M10.7656 9.09473V12.2197" stroke="white" stroke-width="1.2" stroke-linecap="round" stroke-linejoin="round"/>
<path d="M10.7656 15.9697C11.2834 15.9697 11.7031 15.55 11.7031 15.0322C11.7031 14.5145 11.2834 14.0947 10.7656 14.0947C10.2479 14.0947 9.82812 14.5145 9.82812 15.0322C9.82812 15.55 10.2479 15.9697 10.7656 15.9697Z" fill="white"/>
<defs>
<linearGradient id="paint0_linear_5416_19128" x1="10.7651" y1="2.21973" x2="10.7651" y2="19.0949" gradientUnits="userSpaceOnUse">
<stop stop-color="#FFDD65"/>
<stop offset="1" stop-color="#FFB21D"/>
</linearGradient>
</defs>
</svg>
